<?xml version="1.0" encoding="utf-8"?>
<!-- Generator: Adobe Illustrator 16.0.5, SVG Export Plug-In . SVG Version: 6.00 Build 0)  -->
<!DOCTYPE svg PUBLIC "-//W3C//DTD SVG 1.1//EN" "http://www.w3.org/Graphics/SVG/1.1/DTD/svg11.dtd">
<svg version="1.1" id="Layer_1" xmlns="http://www.w3.org/2000/svg" xmlns:xlink="http://www.w3.org/1999/xlink" x="0px" y="0px"
	 width="33.554px" height="33.554px" viewBox="0 0 33.554 33.554" enable-background="new 0 0 33.554 33.554" xml:space="preserve">
<g>
	<path fill="#E31837" d="M33.554,28.04c0,3.041-2.469,5.515-5.521,5.515H5.521C2.473,33.554,0,31.081,0,28.04V5.521
		C0,2.475,2.473,0,5.521,0h22.513c3.052,0,5.521,2.475,5.521,5.521V28.04z"/>
</g>
<g>
	<path fill-rule="evenodd" clip-rule="evenodd" fill="#FFFFFF" d="M18.384,23.082c0-0.304,0.259-0.552,0.574-0.552
		c0.316,0,0.572,0.248,0.572,0.552c0,0.313-0.256,0.563-0.572,0.563C18.643,23.645,18.384,23.395,18.384,23.082 M18.49,23.082
		c0,0.257,0.207,0.454,0.468,0.454c0.255,0,0.462-0.197,0.462-0.454c0-0.243-0.207-0.442-0.462-0.442
		C18.697,22.639,18.49,22.838,18.49,23.082"/>
	<path fill-rule="evenodd" clip-rule="evenodd" fill="#FFFFFF" d="M19.241,23.397h-0.107L18.95,23.11h-0.112v0.287h-0.093v-0.621
		h0.275c0.062,0,0.111,0.002,0.158,0.03c0.049,0.022,0.073,0.08,0.073,0.133c0,0.122-0.091,0.167-0.206,0.171L19.241,23.397z
		 M18.944,23.035c0.087,0,0.214,0.017,0.214-0.096c0-0.081-0.071-0.091-0.154-0.091h-0.166v0.187H18.944z"/>
	<path fill-rule="evenodd" clip-rule="evenodd" fill="#FFFFFF" d="M13.54,12.795c0.853,0.338,1.685,0.693,2.515,1.081
		c-2.639,1.065-5.181,2.337-7.616,3.782c-0.816-0.432-1.653-0.838-2.496-1.217C8.367,15.031,10.907,13.808,13.54,12.795"/>
	<path fill-rule="evenodd" clip-rule="evenodd" fill="#FFFFFF" d="M10.398,11.688c-2.732,0.868-5.368,1.998-7.858,3.378
		c0.795,0.287,1.58,0.588,2.36,0.915c2.417-1.418,4.973-2.62,7.631-3.564C11.83,12.156,11.121,11.91,10.398,11.688"/>
	<path fill-rule="evenodd" clip-rule="evenodd" fill="#FFFFFF" d="M19.252,12.689c-2.152-1.04-4.381-1.916-6.676-2.612
		c-0.809,0.231-1.609,0.483-2.405,0.762c2.366,0.698,4.67,1.583,6.876,2.644C17.775,13.202,18.516,12.936,19.252,12.689"/>
	<path fill-rule="evenodd" clip-rule="evenodd" fill="#FFFFFF" d="M22.763,11.644c-2.203-0.962-4.479-1.763-6.805-2.402
		c-0.738,0.153-1.479,0.319-2.201,0.515c2.308,0.666,4.546,1.525,6.714,2.542C21.225,12.065,21.986,11.844,22.763,11.644"/>
	<path fill-rule="evenodd" clip-rule="evenodd" fill="#FFFFFF" d="M28.395,13.535c-5.524,1.86-10.692,4.513-15.369,7.829
		c1.167,0.712,2.307,1.479,3.421,2.281c4.411-3.5,9.301-6.407,14.57-8.622C30.156,14.5,29.278,14.006,28.395,13.535"/>
	<path fill-rule="evenodd" clip-rule="evenodd" fill="#FFFFFF" d="M24.596,11.729c-5.734,1.517-11.133,3.97-15.989,7.19
		c1.09,0.542,2.169,1.119,3.224,1.727c4.763-3.296,10.052-5.863,15.69-7.56C26.559,12.606,25.586,12.152,24.596,11.729"/>
</g>
</svg>
