<?xml version="1.0" standalone="no"?><!-- Generator: Adobe Fireworks CS5, Export SVG Extension by Aaron Beall (http://fireworks.abeall.com) . Version: 0.6.0  --><!DOCTYPE svg PUBLIC "-//W3C//DTD SVG 1.1//EN" "http://www.w3.org/Graphics/SVG/1.1/DTD/svg11.dtd"><svg id="" viewBox="0 0 46 50" style="background-color:#ffffff00" version="1.1"	xmlns="http://www.w3.org/2000/svg" xmlns:xlink="http://www.w3.org/1999/xlink" xml:space="preserve"	x="0px" y="0px" width="46px" height="50px">	<g id="Layer%201">		<g>			<path d="M 2.8993 38.6256 L 2.8993 4.6373 L 26.7464 4.6373 L 26.7494 38.6256 L 2.8993 38.6256 ZM 29.6465 4.0358 C 29.6465 1.8162 27.7115 -0.0034 25.3453 0 L 4.3026 0 C 1.9393 0 0 1.8162 0 4.0372 L 0 45.9648 C 0 48.1845 1.9393 50 4.3061 50 L 25.3475 50 C 27.7115 50 29.6487 48.1845 29.6522 45.9622 L 29.6465 4.0358 Z" fill="#d1c9c0"/>			<path d="M 37.2435 2.0824 L 33.6508 5.4518 C 43.3518 14.5577 43.3518 29.3755 33.6508 38.4792 L 37.2435 41.8463 C 48.9178 30.8836 48.9199 13.0457 37.2435 2.0824 L 37.2435 2.0824 Z" fill="#0078ba"/>			<path d="M 26.7488 17.5386 L 26.7488 17.5392 C 26.1803 16.3318 25.3713 15.201 24.3211 14.2142 L 20.8364 17.487 C 22.0571 18.6311 22.8133 20.2156 22.8133 21.9644 C 22.8133 23.7148 22.0571 25.2995 20.8364 26.4443 L 24.3188 29.7145 C 25.3713 28.7285 26.1809 27.5945 26.7488 26.3853 L 26.7488 26.3846 C 28.0632 23.5757 28.0617 20.3479 26.7488 17.5386 Z" fill="#0078ba"/>			<path d="M 29.6507 34.7181 L 30.7812 35.7828 C 38.8938 28.1635 38.8938 15.7668 30.7812 8.1486 L 29.6479 9.2134 L 29.6465 9.2127 L 27.1899 11.5205 C 28.1637 12.4323 28.9848 13.4383 29.6479 14.5061 L 29.6479 14.5052 C 32.5081 19.0956 32.5081 24.833 29.6507 29.4243 L 29.6487 29.4243 C 28.9863 30.4924 28.1659 31.496 27.1908 32.4095 L 29.6487 34.7181 L 29.6507 34.7181 Z" fill="#0078ba"/>		</g>	</g></svg>