<?xml version="1.0" standalone="no"?><!-- Generator: Adobe Fireworks CS5, Export SVG Extension by Aaron Beall (http://fireworks.abeall.com) . Version: 0.6.0  --><!DOCTYPE svg PUBLIC "-//W3C//DTD SVG 1.1//EN" "http://www.w3.org/Graphics/SVG/1.1/DTD/svg11.dtd"><svg id="" viewBox="0 0 36 36" style="background-color:#ffffff00" version="1.1"	xmlns="http://www.w3.org/2000/svg" xmlns:xlink="http://www.w3.org/1999/xlink" xml:space="preserve"	x="0px" y="0px" width="36px" height="36px">	<g id="Layer%201">		<g>			<path d="M 0.5 30.0313 C 0.3125 30.3438 0.1563 30.6875 0.0938 31.0313 C 0.0313 31.4063 0 31.75 0 32.0938 C 0 32.4688 0.0313 32.8125 0.1563 33.125 C 0.2813 33.4375 0.4375 33.75 0.625 34.0313 C 0.8125 34.3438 1 34.625 1.25 34.875 C 1.5 35.0938 1.7813 35.2813 2.0938 35.4688 C 2.4063 35.625 2.75 35.75 3.0938 35.875 C 3.4063 35.9375 3.7813 36 4.1563 36 L 31.8438 36 C 32.2188 36 32.5625 35.9375 32.9063 35.875 C 33.2188 35.75 33.5625 35.625 33.875 35.4688 C 34.1875 35.2813 34.4688 35.0938 34.7188 34.875 C 34.9688 34.625 35.1875 34.3438 35.375 34.0313 C 35.5625 33.75 35.6875 33.4375 35.8125 33.0938 C 35.9375 32.75 36 32.4063 36 32.0625 C 36 31.75 35.9375 31.4063 35.875 31.0313 C 35.8125 30.6875 35.6875 30.3438 35.5 30.0313 L 21.5938 2.3125 C 21.4375 1.9375 21.2188 1.625 20.9688 1.3438 C 20.7188 1.0625 20.4063 0.8125 20.0938 0.625 C 19.7813 0.4375 19.4375 0.3125 19.0938 0.1875 C 18.7188 0.0625 18.375 0 18 0 C 17.625 0 17.25 0.0625 16.9063 0.1875 C 16.5313 0.3125 16.1875 0.4375 15.875 0.625 C 15.5625 0.8125 15.25 1.0625 15 1.3438 C 14.75 1.625 14.5313 1.9375 14.4063 2.3125 L 0.5 30.0313 L 0.5 30.0313 Z" fill="#dc1331"/>		</g>		<g>			<path d="M 18 25.5 C 18.5 25.5 19 25.5938 19.4375 25.7813 C 19.875 25.9688 20.25 26.25 20.5938 26.5938 C 20.9063 26.9375 21.1875 27.3125 21.375 27.75 C 21.5625 28.1875 21.6875 28.6563 21.6875 29.1563 C 21.6875 29.6563 21.5625 30.1563 21.375 30.5938 C 21.1875 31.0625 20.9063 31.4688 20.5938 31.7813 C 20.25 32.0625 19.875 32.3438 19.4375 32.5313 C 19 32.7188 18.5 32.8125 18 32.8125 C 17.5 32.8125 17.0313 32.7188 16.5938 32.5313 C 16.1563 32.3438 15.75 32.0625 15.4063 31.7813 C 15.0625 31.4688 14.8125 31.0625 14.625 30.5938 C 14.4375 30.1563 14.3438 29.6563 14.3438 29.1563 C 14.3438 28.6563 14.4375 28.1875 14.625 27.75 C 14.8125 27.3125 15.0625 26.9375 15.4063 26.5938 C 15.75 26.25 16.1563 25.9688 16.5938 25.7813 C 17.0313 25.5938 17.5 25.5 18 25.5 L 18 25.5 ZM 20.9375 21.0938 L 20.9375 12.2813 C 20.9375 11.9063 20.8438 11.5313 20.6875 11.1875 C 20.5313 10.8438 20.3125 10.5313 20.0625 10.25 C 19.8125 10 19.5 9.7813 19.125 9.625 C 18.75 9.4688 18.375 9.375 18 9.375 C 17.5625 9.375 17.1875 9.4688 16.8438 9.625 C 16.5 9.7813 16.1875 10 15.9375 10.25 C 15.6875 10.5313 15.4688 10.8438 15.3125 11.1875 C 15.1563 11.5313 15.0938 11.9063 15.0938 12.2813 L 15.0938 21.0938 C 15.0938 21.5313 15.1563 21.9063 15.3125 22.25 C 15.4688 22.625 15.6875 22.9375 15.9375 23.1875 C 16.1875 23.4688 16.5 23.6875 16.8438 23.8438 C 17.1875 24 17.5625 24.0625 18 24.0625 C 18.375 24.0625 18.75 24 19.125 23.8438 C 19.5 23.6875 19.8125 23.4688 20.0625 23.1875 C 20.3125 22.9375 20.5313 22.625 20.6875 22.25 C 20.8438 21.9063 20.9375 21.5313 20.9375 21.0938 L 20.9375 21.0938 Z" fill="#ffffff"/>		</g>	</g></svg>