<?xml version="1.0" encoding="utf-8"?>
<!-- Generator: Adobe Illustrator 16.0.5, SVG Export Plug-In . SVG Version: 6.00 Build 0)  -->
<!DOCTYPE svg PUBLIC "-//W3C//DTD SVG 1.1//EN" "http://www.w3.org/Graphics/SVG/1.1/DTD/svg11.dtd">
<svg version="1.1" id="Layer_1" xmlns="http://www.w3.org/2000/svg" xmlns:xlink="http://www.w3.org/1999/xlink" x="0px" y="0px"
	 width="90px" height="90px" viewBox="0 0 90 90" enable-background="new 0 0 90 90" xml:space="preserve">
<path fill="#CDC4BB" d="M45.57,24.853c-19.885,0-35.998,12.569-35.998,28.074c0,7.002,3.306,13.39,8.738,18.308l-2.29,12.079
	l13.565-5.256c4.816,1.874,10.233,2.951,15.983,2.951c19.881,0,36.002-12.574,36.002-28.082
	C81.572,37.422,65.451,24.853,45.57,24.853"/>
<g>
	<g>
		<g enable-background="new    ">
			<g>
				<defs>
					<rect id="SVGID_1_" x="25.752" y="5.389" width="39.305" height="46.242"/>
				</defs>
				<clipPath id="SVGID_2_">
					<use xlink:href="#SVGID_1_"  overflow="visible"/>
				</clipPath>
				<g clip-path="url(#SVGID_2_)">
					<defs>
						<rect id="SVGID_3_" x="27.868" y="6.604" width="36.255" height="43.342"/>
					</defs>
					<clipPath id="SVGID_4_">
						<use xlink:href="#SVGID_3_"  overflow="visible"/>
					</clipPath>
					<path clip-path="url(#SVGID_4_)" fill="#E3173E" d="M36.841,44.688c0.065-13.527,12.593-16,12.624-22.608
						c0.019-2.644-1.399-4.073-4.859-4.091c-3.247-0.018-7.523,0.872-13.64,4.398l-3.098-10.793
						c6.117-3.323,11.716-5.021,18.327-4.99c13.624,0.077,17.964,6.606,17.926,13.825C64.056,32.527,51.23,35.103,51.172,45.677
						l-0.022,4.27l-14.338-0.074L36.841,44.688z"/>
				</g>
			</g>
		</g>
	</g>
</g>
<g enable-background="new    ">
	<g>
		<defs>
			<rect id="SVGID_5_" x="35.001" y="53.943" width="18.496" height="16.185"/>
		</defs>
		<clipPath id="SVGID_6_">
			<use xlink:href="#SVGID_5_"  overflow="visible"/>
		</clipPath>
		<g clip-path="url(#SVGID_6_)">
			<defs>
				<rect id="SVGID_7_" x="36.866" y="55.018" width="14.654" height="14.216"/>
			</defs>
			<clipPath id="SVGID_8_">
				<use xlink:href="#SVGID_7_"  overflow="visible"/>
			</clipPath>
			<path clip-path="url(#SVGID_8_)" fill="#E3173E" d="M44.197,69.233c-4.071-0.022-7.354-3.335-7.332-7.236
				c0.022-3.812,3.247-7.004,7.408-6.979c4.162,0.021,7.264,3.242,7.246,7.061C51.497,65.978,48.191,69.256,44.197,69.233"/>
		</g>
	</g>
</g>
</svg>
