<?xml version="1.0" encoding="utf-8"?>
<!-- Generator: Adobe Illustrator 15.0.2, SVG Export Plug-In . SVG Version: 6.00 Build 0)  -->
<!DOCTYPE svg PUBLIC "-//W3C//DTD SVG 1.1//EN" "http://www.w3.org/Graphics/SVG/1.1/DTD/svg11.dtd">
<svg version="1.1" id="Layer_1" xmlns="http://www.w3.org/2000/svg" xmlns:xlink="http://www.w3.org/1999/xlink" x="0px" y="0px"
	 width="36px" height="36px" viewBox="0 0 36 36" enable-background="new 0 0 36 36" xml:space="preserve">
<path fill="none" d="z"/>
<g id="Layer_x25_201">
	<g>
		<path fill="#0073CF" d="M36,18c0,9.94-8.062,18-18.001,18C8.058,36,0,27.94,0,18S8.058,0,17.999,0C27.938,0,36,8.06,36,18z"/>
		<path fill="#FFFFFF" d="M18.112,10.925c-0.881,0-1.561,0.217-2.042,0.648c0.496,0.4,0.744,0.848,0.744,1.344
			c0,0.623-0.24,1.156-0.719,1.596c-0.48,0.439-1.057,0.66-1.729,0.66c-0.736,0-1.336-0.244-1.801-0.732
			c-0.462-0.488-0.694-1.123-0.694-1.908c0-1.375,0.632-2.516,1.896-3.42c1.264-0.902,2.863-1.355,4.799-1.355
			c1.888,0,3.407,0.465,4.56,1.393s1.728,2.152,1.728,3.672c0,0.672-0.141,1.324-0.419,1.955c-0.281,0.633-0.652,1.117-1.117,1.453
			c-0.608,0.463-1.365-0.271-2.386,1.049c-0.238,0.309-0.729,1.626-0.84,1.739c-0.111,0.111-0.549,0.931-0.564,1.203
			c-0.016,0.447-0.104,0.736-0.264,0.865c-0.16,0.125-0.514,0.207-1.057,0.238l-0.672,0.047h-0.24c-0.623,0-1.057-0.121-1.295-0.371
			c-0.24-0.246-0.361-0.689-0.361-1.331c0-0.816,0.339-1.317,0.564-1.812c0.29-0.638,1.19,0.042,2.076-0.924
			c1.087-1.184,2.351-3.039,2.351-4.064c0-0.576-0.23-1.043-0.694-1.404C19.471,11.104,18.863,10.925,18.112,10.925z M17.512,28.605
			c-0.625,0-1.156-0.227-1.596-0.672c-0.441-0.449-0.66-0.984-0.66-1.609s0.219-1.16,0.66-1.609
			c0.439-0.445,0.971-0.672,1.596-0.672c0.623,0,1.16,0.227,1.607,0.672c0.447,0.449,0.672,0.984,0.672,1.609
			s-0.225,1.16-0.672,1.609C18.672,28.379,18.135,28.605,17.512,28.605z"/>
	</g>
</g>
<path fill="none" d="z"/>
</svg>
