<?xml version="1.0" standalone="no"?><!-- Generator: Adobe Fireworks CS6, Export SVG Extension by Aaron Beall (http://fireworks.abeall.com) . Version: 0.6.0  --><!DOCTYPE svg PUBLIC "-//W3C//DTD SVG 1.1//EN" "http://www.w3.org/Graphics/SVG/1.1/DTD/svg11.dtd"><svg id="" viewBox="0 0 42 42" style="background-color:#ffffff00" version="1.1"	xmlns="http://www.w3.org/2000/svg" xmlns:xlink="http://www.w3.org/1999/xlink" xml:space="preserve"	x="0px" y="0px" width="42px" height="42px">	<g id="Layer%201">		<path d="M 0 20.937 C 0 23.8966 0.534 26.6671 1.6335 29.1859 C 2.733 31.7361 4.2408 33.9716 6.1256 35.8606 C 8.0105 37.7496 10.2408 39.2609 12.8167 40.3628 C 15.3927 41.4332 18.0942 42 20.9843 42 C 23.8744 42 26.5759 41.4332 29.1518 40.3628 C 31.7278 39.2609 33.9581 37.7496 35.8429 35.8606 C 37.7278 33.9716 39.2356 31.7361 40.3351 29.1859 C 41.4345 26.6671 42 23.8966 42 20.937 C 42 18.072 41.4345 15.3643 40.3351 12.8141 C 39.2356 10.2954 37.7278 8.0599 35.8429 6.1394 C 33.9581 4.2504 31.7278 2.7391 29.1518 1.6372 C 26.5759 0.5668 23.8744 0 20.9843 0 C 18.0942 0 15.3927 0.5668 12.8167 1.6372 C 10.2408 2.7391 8.0105 4.2504 6.1256 6.1394 C 4.2408 8.0599 2.733 10.2954 1.6335 12.8141 C 0.534 15.3643 0 18.072 0 20.937 L 0 20.937 Z" fill="#ffffff"/>		<path d="M 18 23.1 L 17.055 22.155 L 13.2251 25.9745 C 12.9738 26.2893 12.7539 26.6357 12.5969 27.0135 C 12.4084 27.3914 12.3456 27.8007 12.3456 28.1785 C 12.3456 28.5563 12.4398 28.9341 12.5969 29.3119 C 12.7225 29.6897 12.9424 30.036 13.2565 30.3508 C 13.3822 30.4768 13.5393 30.6027 13.7278 30.7286 L 14.2618 31.012 L 14.8272 31.2009 C 15.0157 31.2009 15.2356 31.2324 15.4241 31.2324 C 15.6126 31.2324 15.8325 31.2009 16.0209 31.2009 L 16.5864 31.012 L 17.1204 30.7286 C 17.2775 30.6027 17.4345 30.4768 17.623 30.3508 L 17.5916 30.3508 L 20.925 27 L 21.905 27 L 25.2565 30.3508 C 25.3508 30.4768 25.5078 30.6027 25.6963 30.7286 L 26.2304 31.012 C 26.3874 31.075 26.5759 31.1379 26.7958 31.2009 C 26.9843 31.2009 27.1728 31.2324 27.3613 31.2324 C 27.5811 31.2324 27.7696 31.2009 27.9581 31.2009 L 28.5236 31.012 C 28.712 30.9175 28.9005 30.8231 29.0576 30.7286 C 29.2147 30.6027 29.4031 30.4768 29.5916 30.3508 L 29.5602 30.3508 C 29.8744 30.036 30.0942 29.6897 30.2199 29.3119 C 30.3456 28.9341 30.4398 28.5563 30.4398 28.1785 C 30.4398 27.8007 30.377 27.3914 30.2199 27.0135 C 30.0314 26.6357 29.8429 26.2893 29.5916 25.9745 L 25.76 22.145 L 25 22.9099 L 25 21.385 L 25.76 22.145 L 29.5602 18.3239 C 29.8115 18.0405 30.0314 17.6941 30.2199 17.3163 C 30.377 16.9385 30.4398 16.5607 30.4398 16.1829 C 30.4398 15.8051 30.3456 15.3958 30.2199 15.0179 C 30.0942 14.6401 29.8429 14.2938 29.5288 13.979 C 29.2461 13.7272 28.9005 13.5067 28.5236 13.3494 C 28.1466 13.1919 27.7696 13.0974 27.3927 13.0974 C 27.0157 13.0974 26.6073 13.1919 26.2304 13.3494 C 25.8534 13.5067 25.5078 13.7272 25.2565 13.979 L 21.42 17.8049 L 21.615 18 L 21.225 18 L 21.42 17.8049 L 17.5916 13.979 C 17.2775 13.7272 16.9319 13.5067 16.555 13.3494 C 16.178 13.1919 15.8011 13.0974 15.4241 13.0974 C 15.0471 13.0974 14.6387 13.1919 14.2618 13.3494 C 13.8848 13.5067 13.5393 13.7272 13.2565 13.979 C 12.9424 14.2938 12.7225 14.6401 12.5969 15.0179 C 12.4398 15.3958 12.3456 15.8051 12.3456 16.1829 C 12.3456 16.5607 12.4084 16.9385 12.5969 17.3163 C 12.7539 17.6941 12.9738 18.0405 13.2251 18.3239 L 17.055 22.155 L 18 21.215 L 18 23.1 Z" fill="#007dc3"/>	</g></svg>