<svg xmlns="http://www.w3.org/2000/svg" viewBox="0 0 34 34" width="34" height="34" preserveAspectRatio="xMinYMin meet"><path d="M17.094 33.898c-9.373 0-17-7.625-17-17 0-9.373 7.627-17 17-17 9.375 0 17 7.627 17 17 0 9.375-7.625 17-17 17z" fill="#007dc3"/><path d="M17.094 10.717c2.133 0 3.863-1.73 3.863-3.863s-1.73-3.86-3.863-3.86c-2.134 0-3.863 1.73-3.863 3.862 0 2.135 1.73 3.865 3.864 3.865zm-3.09 6.18c0-1.706 1.383-3.09 3.09-3.09 1.707 0 3.09 1.385 3.09 3.09v9.274c0 1.708-1.383 3.09-3.09 3.09-1.707 0-3.09-1.382-3.09-3.09V16.9z" fill="#fff"/></svg>