<?xml version="1.0" encoding="utf-8"?>
<!-- Generator: Adobe Illustrator 15.0.2, SVG Export Plug-In . SVG Version: 6.00 Build 0)  -->
<!DOCTYPE svg PUBLIC "-//W3C//DTD SVG 1.1//EN" "http://www.w3.org/Graphics/SVG/1.1/DTD/svg11.dtd">
<svg version="1.1" id="Layer_1" xmlns="http://www.w3.org/2000/svg" xmlns:xlink="http://www.w3.org/1999/xlink" x="0px" y="0px"
	 width="44px" height="44px" viewBox="-11 -11 44 44" enable-background="new -11 -11 44 44" xml:space="preserve">
<path fill="none" d="z"/>
<g id="Layer_x25_201">
	<g>
		<path fill="#EF8F01" d="M-10.431,25.658L6.581-8.178C7.457-9.92,9.15-11,11-11c1.848,0,3.541,1.08,4.418,2.822l17.01,33.832
			c0.816,1.621,0.756,3.48-0.16,4.969C31.348,32.111,29.715,33,27.895,33h-33.79c-1.817,0-3.452-0.887-4.37-2.373
			C-11.183,29.141-11.245,27.283-10.431,25.658z"/>
		<path fill="#FFFFFF" d="M11,21.266c-2.025,0-3.667,1.641-3.667,3.668c0,2.025,1.642,3.666,3.667,3.666
			c2.027,0,3.668-1.641,3.668-3.666C14.668,22.906,13.027,21.266,11,21.266z"/>
		<path fill="#FFFFFF" d="M13.934,16.867c0,1.619-1.312,2.934-2.934,2.934l0,0c-1.62,0-2.934-1.314-2.934-2.934V8.066
			c0-1.619,1.313-2.933,2.934-2.933l0,0c1.621,0,2.934,1.313,2.934,2.933V16.867z"/>
	</g>
</g>
<path fill="none" d="z"/>
</svg>
